# xmcd
# 
# Track frame offsets:
#     150
#     29143
#     66182
#     131975
#     152339
#     180107
#     222103
#     266150
# 
# Disc length: 4361
# 
# Revision: 0
# Processed by: cddbd v1.5.2PL0 Copyright (c) Steve Scherf et al.
# Submitted via: fre:ac v1.0.17
# 
DISCID=70110708
DTITLE=Axel Rudi Pell - The Crest CD2 Live At Rock Of Ages Festival 31 Juli 2009
DYEAR=2010
DGENRE=Metal
TTITLE0=Tear Down The Walls
TTITLE1=Strong As A Rock
TTITLE2=Medley: The Masquerade Ball - Casbah - Tales Of The Crown
TTITLE3=Drum Solo
TTITLE4=Rock The Nation
TTITLE5=The Temple Of The King
TTITLE6=Mystica
TTITLE7=Fool Fool - Eternal Prisoner
EXTD=
EXTT0=
EXTT1=
EXTT2=
EXTT3=
EXTT4=
EXTT5=
EXTT6=
EXTT7=
PLAYORDER=
